<svg width="1024" height="1024" viewBox="0 0 1024 1024" fill="none" xmlns="http://www.w3.org/2000/svg">
<path d="M578.299 506.1C578.299 503.7 579.199 497.5 580.199 492.3C582.699 480 587.699 470 595.599 461.7C601.199 455.9 603.399 454.5 622.799 445C716.899 398.7 753.299 380.5 756.099 378.1C758.099 376.4 759.299 374.4 759.299 372.9C759.299 371.6 760.199 370.5 760.199 370.5C760.199 370.5 765.299 375 770.299 380.5C772.992 383.462 775.367 387.222 776.199 389C779.099 395.2 782.299 411.4 782.299 416.5C782.299 425.5 782.499 430.5 779.799 430.5C777.299 430.5 777.399 420 776.299 415.8C774.499 409.7 768.299 403.1 762.499 401.4C758.599 400.3 757.099 400.4 748.999 402.4C743.999 403.6 735.899 406.2 730.899 408.2C718.499 413.2 639.799 453.5 628.399 460.6C607.999 473.5 598.499 483.3 590.099 500.3C585.099 510.2 584.799 510.5 581.599 510.5C578.399 510.5 578.299 510.4 578.299 506.1Z" fill="#C6FAF7"/>
<path d="M519.299 467C511.999 464.9 448.999 448.8 433.299 444.9C425.299 443 416.799 440.8 414.299 440C411.799 439.3 404.899 437.4 398.799 436C392.799 434.5 384.199 432.3 379.799 431C366.099 427.1 357.499 424.8 335.799 419.5C324.199 416.7 311.699 413.4 307.999 412.3C304.299 411.2 298.199 409.9 294.499 409.4C290.799 408.9 286.999 408.2 285.999 407.9C281.799 406.6 265.499 407.3 262.299 409C254.899 412.8 249.099 420.8 246.199 431.3C245.199 434.8 246.399 452.5 244.299 452.5C241.999 452.5 243.299 447.2 241.299 430C240.299 407 254.199 391.7 272.699 382.7C284.099 377.2 416.699 317.7 432.799 311C457.399 300.6 474.298 298 474.298 298C474.298 298 493.399 298.5 563.299 316C642.299 335.9 749.999 365.1 756.299 368.3C761.199 370.9 761.799 371.6 762.099 374.7C762.399 377.7 761.899 378.7 759.099 381C756.299 383.4 694.499 414.5 626.799 447.5C616.899 452.3 607.199 457.4 605.199 458.8C599.499 462.7 584.899 466.4 570.999 467.5C553.499 468.9 524.799 468.6 519.299 467Z" fill="#FCDBCC"/>
<path d="M520.8 851C520.8 852 477.2 840.7 427.8 828.6C312.1 800.4 280.9 792 268.9 785.7C254.9 778.3 245.8 766.8 241.9 751.8C240.5 746.4 241.899 726.6 241.899 587.5C241.899 487.2 241 446.5 241 435.5C241 424.5 243.35 422.699 246.8 417.5C250.749 411.55 256.5 407.3 260.6 405.5C264 404.1 266.9 403.8 276.3 404C282.6 404.2 288.9 404.6 290.3 404.9C291.7 405.2 294.6 405.7 296.9 406C299.2 406.3 304.1 407.5 307.9 408.6C311.7 409.7 315.7 410.8 316.8 410.9C318.7 411.2 360.1 421.8 377.7 426.5L520.8 463.6C526.5 465.2 530.6 465.5 543.3 465.4C567.8 465.1 578.9 464 590.6 460.6C601.2 457.5 605.8 458.5 605.8 458.5C605.8 458.5 601.6 461.6 598.3 465.1C590.4 473.3 585.2 484.1 582.8 497C581 507 581.3 510 583.5 504.5C584.6 501.9 584.8 525.3 584.6 639.2C584.5 715 584.1 779.4 583.8 782.3C583.4 785.4 582.7 787.5 581.9 787.5C581.2 787.5 576.9 793.5 572.3 800.8C561.9 817.2 556.5 824.1 547.1 833C533.7 845.6 530.2 848.5 528.7 848.5C527.9 848.5 526.4 848.9 525.5 849.4C523.2 850.5 521.3 850.5 520.8 851Z" fill="#F9C7C3"/>
<path d="M614.299 824.6C602.699 823 593.799 816.4 586.399 803.8C582.899 798 581.599 796.5 579.699 796.5C577.399 796.5 577.299 796.2 577.299 790.5C577.299 786.1 577.699 784.5 578.699 784.5C579.499 784.5 580.299 783 580.699 780.8C580.999 778.7 581.299 716.6 581.299 642.8V508.6L586.699 497.8C595.599 480.1 604.899 470.5 625.399 457.6C636.899 450.5 715.599 410.2 727.899 405.2C739.399 400.6 751.699 397.5 758.499 397.5C768.499 397.6 774.299 404 779.799 412.5C781.093 414.5 781.299 416 781.899 417.5C782.609 419.276 783.299 441.5 783.299 569.8C783.299 738.7 783.799 727.1 776.599 740.7C774.399 744.9 770.299 750.3 766.399 754.3C759.899 760.8 758.899 761.3 700.299 790.8C667.599 807.3 639.199 821.6 637.199 822.7C632.999 824.9 622.599 825.8 614.299 824.6Z" fill="#AAD8DB"/>
<path d="M528.299 852.4C518.399 851.2 515.299 850.5 515.299 849.6C515.299 848.7 527.299 844 533.099 839.9C538.899 835.8 551.099 823.5 556.199 817C558.799 813.7 565.882 807.229 570.299 799.5C574.299 792.5 579.299 781 580.299 781C581.299 783.5 581.799 789 584.299 799.5C584.799 807.4 585.399 810.3 588.299 816.5C591.699 824.2 592.828 828.429 599.499 831.1C603.961 832.886 608.099 831.5 611.799 831.5C616.599 831.5 616.299 833.6 611.099 835.9C579.499 849.6 564.499 853.6 545.899 853.4C539.799 853.3 531.899 852.9 528.299 852.4Z" fill="#EEB0AD"/>
<path d="M593.199 830.8C589.199 827.2 584.599 819.3 582.499 812.5C581.899 810.6 581.299 803.5 581.099 796.8C581.099 796.8 579.906 781.587 580.298 781C581.299 779.5 581.299 785.5 582.549 788.9C583.799 792.299 584.799 794 584.799 794C590.999 805.7 594.099 808.7 599.499 813.5C608.499 821.4 619.699 823.7 633.199 820.5C642.699 818.2 642.299 818.2 642.299 819.4C642.299 819.9 635.999 823.5 628.199 827.4L614.099 834.5C614.099 834.5 610.599 835 605.699 834.5C600.799 834 597.799 834 593.199 830.8Z" fill="#76BEC3"/>
<path d="M620.203 353.19C620.503 352.19 623.203 345.79 626.203 338.89C632.803 323.79 639.803 303.19 640.603 296.59C641.103 292.29 640.603 290.69 636.103 281.09C628.503 265.19 626.503 256.89 626.503 242.39C626.603 231.69 626.903 229.39 629.703 220.89C633.803 208.39 638.803 199.99 647.403 191.29C666.503 171.89 697.503 165.69 726.003 175.79C736.703 179.59 744.003 184.19 752.403 192.39C758.203 198.09 760.503 201.39 764.303 208.89C771.003 222.69 772.403 228.89 772.303 244.39C772.203 259.29 770.103 267.39 763.403 279.49C758.803 287.69 745.803 300.99 737.703 305.79C729.303 310.69 716.803 314.69 705.703 315.99C697.703 316.89 694.403 316.79 686.203 315.49C680.803 314.59 675.503 313.69 674.303 313.29C672.703 312.89 671.403 313.89 668.103 318.09C662.103 325.79 648.303 339.09 641.403 343.69C635.303 347.79 627.703 351.89 622.503 353.89C620.003 354.79 619.703 354.69 620.203 353.19Z" fill="#00D3D4"/>
<path d="M699.403 283.39C697.903 283.39 694.008 281.622 693.403 280.89C691.503 278.59 689.903 274.39 690.403 270.89C691.903 266.89 694.903 263.89 698.903 263.39C704.903 262.89 705.903 264.89 708.403 267.39C711.403 271.89 710.403 276.89 706.903 280.89C704.403 282.39 702.403 283.39 699.403 283.39Z" fill="#E8F7FC"/>
<path d="M695.903 251.39C694.403 248.39 693.903 234.89 692.903 227.39C689.903 213.39 691.503 206.59 698.403 205.89C702.003 205.59 704.803 206.69 706.403 207.89C707.703 208.79 709.403 211.89 708.903 216.89C708.903 219.89 707.403 230.89 707.403 230.89C706.903 234.89 706.903 248.19 704.903 251.39C703.203 253.89 700.403 253.89 700.403 253.89C700.403 253.89 696.903 253.39 695.903 251.39Z" fill="#E8F7FC"/>
<path d="M403.501 675.587C393.601 672.987 384.401 670.587 383.001 670.087C381.601 669.687 379.901 669.387 379.201 669.387C373.401 670.087 389.001 648.887 400.001 641.187C404.201 638.187 405.101 637.987 413.001 637.987C419.801 637.987 422.401 638.487 426.001 640.187L429.5 642V650.187C429.4 654.487 429.344 661.634 429.5 669C429.594 673.46 428.847 676.387 426.5 679C425.5 680.113 419.5 679.5 419.5 679.5C417.1 679.4 413.401 678.087 403.501 675.587Z" fill="#FB95A6"/>
<path d="M377 637.187C377 606.187 377.1 604.687 379 602.987C380.9 601.287 381.7 601.387 403.2 606.487C424 611.287 427.3 612.387 429.2 614.987C429.6 615.587 430 623.087 430 631.787C430 646.787 429.9 647.487 428.3 645.887C423.6 641.287 411 638.887 405.7 641.587C401.4 643.787 393.1 651.587 389.4 656.787C385.1 662.787 379 669.487 377.8 669.487C377.4 669.487 377 654.887 377 637.187Z" fill="#244858"/>
<path d="M488.936 662.511C479.736 659.711 477.336 658.311 475.436 654.311C472.336 647.711 474.636 638.911 479.436 638.911C484.036 638.911 504.536 644.011 506.936 645.811C509.036 647.311 509.536 648.611 509.736 653.211C509.936 656.911 509.536 659.911 508.436 661.911C507.036 664.711 506.536 664.911 501.636 664.811C498.836 664.811 493.036 663.811 488.936 662.511Z" fill="#00D3D4"/>
<path d="M324.436 632.211C314.136 630.811 303.536 626.011 301.336 621.711C299.736 618.511 299.536 611.611 300.936 608.811C302.336 606.211 306.636 606.411 320.336 609.411C332.636 612.111 334.836 613.511 335.636 619.611C336.436 625.711 334.436 630.511 330.736 631.811C329.036 632.411 327.636 632.811 327.536 632.811C327.436 632.711 326.136 632.411 324.436 632.211Z" fill="#00D3D4"/>
<path d="M479.391 618.436C473.691 615.736 469.491 611.336 466.491 604.736C464.691 600.736 464.391 597.936 464.091 580.336C463.791 567.436 464.091 558.936 464.891 555.836C468.391 541.736 482.391 536.836 495.991 545.036C501.791 548.536 507.091 555.336 508.891 561.536C510.191 566.436 510.191 599.236 508.791 604.136C504.991 617.936 491.791 624.336 479.391 618.436Z" fill="#244858"/>
<path d="M333.392 591.836C328.192 589.436 322.392 583.536 319.092 577.236C316.492 572.336 316.392 571.736 316.092 550.836C315.692 526.636 316.392 523.336 322.492 517.336C332.292 507.836 349.192 511.436 357.892 524.836C362.992 532.736 363.892 537.636 363.892 557.236C363.892 571.236 363.592 574.436 361.892 579.036C357.292 591.236 344.592 597.036 333.392 591.836Z" fill="#244858"/>
</svg>
