<?xml version="1.0" encoding="UTF-8" standalone="no"?>
<svg
   width="448"
   height="448"
   viewBox="0 0 448 448"
   fill="none"
   version="1.1"
   id="svg337"
   sodipodi:docname="auth.svg"
   inkscape:version="1.2.2 (1:1.2.2+202212051550+b0a8486541)"
   inkscape:export-filename="auth.png"
   inkscape:export-xdpi="96"
   inkscape:export-ydpi="96"
   xmlns:inkscape="http://www.inkscape.org/namespaces/inkscape"
   xmlns:sodipodi="http://sodipodi.sourceforge.net/DTD/sodipodi-0.dtd"
   xmlns="http://www.w3.org/2000/svg"
   xmlns:svg="http://www.w3.org/2000/svg">
  <sodipodi:namedview
     id="namedview339"
     pagecolor="#ffffff"
     bordercolor="#000000"
     borderopacity="0.25"
     inkscape:showpageshadow="2"
     inkscape:pageopacity="0.0"
     inkscape:pagecheckerboard="0"
     inkscape:deskcolor="#d1d1d1"
     showgrid="false"
     inkscape:zoom="1.796875"
     inkscape:cx="224"
     inkscape:cy="224"
     inkscape:window-width="1920"
     inkscape:window-height="1007"
     inkscape:window-x="0"
     inkscape:window-y="40"
     inkscape:window-maximized="1"
     inkscape:current-layer="g311" />
  <g
     clip-path="url(#clip0_3_12)"
     id="g313">
    <g
       filter="url(#filter0_d_3_12)"
       id="g311">
      <path
         fill-rule="evenodd"
         clip-rule="evenodd"
         d="M 416,112 224,0 32,112 224,224 Z M 240,448 432,334.92 V 138 L 240,252 Z M 16,334.92 V 138 L 208,252 V 448 Z M 142.292,158.5 C 122.145,132.085 130.403,100.364 167.406,79 204.409,57.6364 259.352,52.8685 305.104,64.5 c 20.147,26.4152 11.889,58.136 -25.114,79.5 -37.003,21.364 -91.946,26.132 -137.698,14.5 z m 44.403,-25.636 c 20.715,11.96 54.105,12.095 74.531,0.303 20.425,-11.793 20.19,-31.071 -0.525,-43.0306 -20.715,-11.96 -54.105,-12.0958 -74.531,-0.3031 -20.425,11.7927 -20.19,31.0707 0.525,43.0307 z m 14.801,-8.546 c -12.459,-7.193 -12.6,-18.725 -0.315,-25.818 12.285,-7.0927 32.26,-7.0115 44.719,0.1818 12.459,7.1932 12.6,18.7252 0.315,25.8182 -12.285,7.093 -32.259,7.012 -44.719,-0.182 z"
         fill="#55814E"
         id="path309"
         style="fill:#ffffff;fill-opacity:1"
         inkscape:label="path309" />
    </g>
  </g>
  <defs
     id="defs335">
    <filter
       id="filter0_d_3_12"
       x="12"
       y="0"
       width="424"
       height="456"
       filterUnits="userSpaceOnUse"
       color-interpolation-filters="sRGB">
      <feFlood
         flood-opacity="0"
         result="BackgroundImageFix"
         id="feFlood315" />
      <feColorMatrix
         in="SourceAlpha"
         type="matrix"
         values="0 0 0 0 0 0 0 0 0 0 0 0 0 0 0 0 0 0 127 0"
         result="hardAlpha"
         id="feColorMatrix317" />
      <feOffset
         dy="4"
         id="feOffset319" />
      <feGaussianBlur
         stdDeviation="2"
         id="feGaussianBlur321" />
      <feComposite
         in2="hardAlpha"
         operator="out"
         id="feComposite323" />
      <feColorMatrix
         type="matrix"
         values="0 0 0 0 0 0 0 0 0 0 0 0 0 0 0 0 0 0 0.25 0"
         id="feColorMatrix325" />
      <feBlend
         mode="normal"
         in2="BackgroundImageFix"
         result="effect1_dropShadow_3_12"
         id="feBlend327" />
      <feBlend
         mode="normal"
         in="SourceGraphic"
         in2="effect1_dropShadow_3_12"
         result="shape"
         id="feBlend329" />
    </filter>
    <clipPath
       id="clip0_3_12">
      <rect
         width="448"
         height="448"
         fill="white"
         id="rect332" />
    </clipPath>
  </defs>
</svg>
